<?xml version="1.0" encoding="utf-8"?>
<!-- Generator: Adobe Illustrator 27.8.1, SVG Export Plug-In . SVG Version: 6.00 Build 0)  -->
<svg version="1.1" id="Layer_1" xmlns="http://www.w3.org/2000/svg" xmlns:xlink="http://www.w3.org/1999/xlink" x="0px" y="0px"
	 width="244.12px" height="22.61px" viewBox="0 0 244.12 22.61" style="enable-background:new 0 0 244.12 22.61;"
	 xml:space="preserve">
<style type="text/css">
	.st0{fill:#FB64FF;}
	.st1{fill:#BC00BC;}
</style>
<g>
	<path class="st0" d="M19.07,2.03c-1.39-1.13-3.24-1.69-5.56-1.69H3.85L0,22.25h6.76l1.2-6.9H9.1c0.12,0,0.23,0,0.35,0
		c0.11,0,0.23,0,0.35,0l2.23,6.9h7l-2.73-7.72c1.46-0.6,2.59-1.48,3.41-2.64c0.82-1.16,1.29-2.51,1.4-4.05
		c0.01-0.11,0.02-0.23,0.02-0.38s0.01-0.3,0.01-0.46C21.14,4.82,20.45,3.16,19.07,2.03z M14.39,7.83c-0.01,0.1-0.02,0.17-0.03,0.22
		c-0.08,0.56-0.27,1.02-0.58,1.4c-0.31,0.38-0.7,0.67-1.16,0.86c-0.46,0.19-0.97,0.29-1.53,0.29H8.78L9.76,5.3h2.07
		c0.34,0,0.71,0.06,1.11,0.18c0.4,0.12,0.74,0.34,1.03,0.66c0.29,0.32,0.43,0.79,0.43,1.41C14.4,7.64,14.4,7.74,14.39,7.83z"/>
	<polygon class="st0" points="31.76,5.65 40.62,5.65 41.55,0.35 25.95,0.35 22.09,22.25 37.7,22.25 38.63,16.95 29.75,16.95 
		30.33,13.68 38.64,13.68 39.46,8.99 31.15,8.99 	"/>
	<path class="st0" d="M50.08,0.35l-10.39,21.9h6.78l1.65-4.14h5.8l0.21,4.14h7.29L58.6,0.35H50.08z M50.06,13.37l3-7.45h0.35
		l0.29,7.45H50.06z"/>
	<polygon class="st0" points="74.32,0.35 67.59,0.35 63.74,22.25 78.43,22.25 79.39,16.75 71.43,16.75 	"/>
	<polygon class="st0" points="81.24,22.25 87.97,22.25 91.82,0.35 85.09,0.35 	"/>
	<polygon class="st0" points="93.47,5.76 98.84,5.76 95.9,22.25 102.64,22.25 105.55,5.76 110.88,5.76 111.84,0.35 94.44,0.35 	"/>
	<polygon class="st0" points="127.22,0.35 122.2,9.01 121.94,9.01 120.12,0.35 112.88,0.35 117.57,15.65 116.4,22.25 123.14,22.25 
		124.33,15.44 134.3,0.35 	"/>
	<path class="st0" d="M149.88,9.97c0.8-0.44,1.48-1.05,2.05-1.85c0.57-0.79,0.85-1.74,0.85-2.84c0-1.01-0.24-1.88-0.71-2.62
		c-0.47-0.74-1.17-1.31-2.09-1.71c-0.92-0.4-2.07-0.6-3.44-0.6h-10.6l-3.85,21.9h10.69c1.65,0,3.17-0.23,4.57-0.68
		c1.4-0.46,2.52-1.17,3.37-2.14c0.85-0.97,1.28-2.24,1.28-3.79c0-0.91-0.23-1.7-0.69-2.38c-0.46-0.68-1.03-1.21-1.72-1.61
		c-0.68-0.39-1.36-0.6-2.04-0.63l0.05-0.3C148.33,10.66,149.09,10.41,149.88,9.97z M144.83,16.57c-0.27,0.42-0.65,0.74-1.13,0.96
		c-0.48,0.22-1.04,0.33-1.67,0.33h-2.52l0.87-4.88h2.25c0.71,0,1.32,0.14,1.84,0.43c0.52,0.28,0.78,0.83,0.78,1.63
		C145.23,15.64,145.1,16.15,144.83,16.57z M145.69,7.79c-0.23,0.38-0.55,0.66-0.95,0.84c-0.4,0.19-0.87,0.28-1.41,0.28h-2.26
		l0.76-4.29h2.04c0.52,0,1.02,0.12,1.48,0.36c0.46,0.24,0.69,0.71,0.69,1.42C146.04,6.95,145.92,7.41,145.69,7.79z"/>
	<path class="st0" d="M170.85,1.03C169.44,0.34,167.82,0,165.98,0c-1.93,0-3.62,0.35-5.08,1.04c-1.46,0.69-2.66,1.69-3.59,2.99
		c-0.93,1.31-1.56,2.89-1.89,4.75l-0.53,2.95c-0.06,0.36-0.1,0.75-0.12,1.17c-0.02,0.42-0.02,0.81-0.02,1.19
		c0,1.77,0.4,3.29,1.2,4.56c0.8,1.27,1.9,2.25,3.3,2.93c1.4,0.68,3.02,1.02,4.85,1.02c2.92,0,5.29-0.77,7.09-2.32
		c1.8-1.55,2.96-3.7,3.48-6.46l0.55-2.95c0.07-0.41,0.12-0.81,0.13-1.21s0.02-0.78,0.02-1.15c0-1.77-0.4-3.28-1.19-4.55
		S172.26,1.71,170.85,1.03z M168.56,9.6c-0.02,0.31-0.06,0.64-0.13,0.98l-0.35,1.98c-0.19,1.08-0.47,1.96-0.82,2.64
		c-0.35,0.68-0.77,1.18-1.25,1.49s-1.01,0.47-1.57,0.47c-0.66,0-1.21-0.16-1.65-0.47c-0.43-0.31-0.75-0.73-0.96-1.26
		s-0.31-1.12-0.31-1.77c0-0.24,0.01-0.51,0.04-0.83c0.03-0.32,0.07-0.64,0.12-0.97l0.35-1.97c0.29-1.63,0.76-2.8,1.4-3.52
		c0.65-0.72,1.39-1.08,2.24-1.08c0.67,0,1.23,0.16,1.66,0.47c0.43,0.31,0.75,0.73,0.96,1.26c0.2,0.53,0.31,1.12,0.31,1.77
		C168.6,9.02,168.58,9.29,168.56,9.6z"/>
	<path class="st0" d="M190.22,13.9c-0.19,1.1-0.55,1.88-1.06,2.34c-0.51,0.46-1.13,0.69-1.86,0.69c-0.9,0-1.6-0.23-2.11-0.7
		c-0.51-0.47-0.76-1.1-0.76-1.9c0-0.15,0.01-0.31,0.02-0.49c0.02-0.18,0.04-0.36,0.07-0.54l2.26-12.96h-6.74l-2.33,13.33
		c-0.04,0.27-0.08,0.53-0.1,0.79c-0.02,0.26-0.03,0.52-0.03,0.76c0,1.68,0.44,3.06,1.31,4.14c0.87,1.08,2.01,1.88,3.42,2.4
		s2.91,0.78,4.5,0.78c1.75,0,3.33-0.27,4.73-0.81c1.4-0.54,2.54-1.32,3.44-2.34s1.47-2.26,1.72-3.7l2.67-15.35h-6.74L190.22,13.9z"
		/>
	<polygon class="st0" points="214.18,11.03 213.92,11.03 208.43,0.35 203.32,0.35 199.47,22.25 205.71,22.25 207.59,11.38 
		207.85,11.38 213.39,22.25 218.42,22.25 222.27,0.35 216.02,0.35 	"/>
	<path class="st0" d="M243.13,4.66c-0.66-1.34-1.61-2.39-2.85-3.15c-1.24-0.77-2.75-1.15-4.53-1.15h-9.3l-3.85,21.9h9.3
		c2.06,0,3.89-0.39,5.51-1.16c1.62-0.77,2.96-1.84,4.03-3.21c1.07-1.37,1.81-2.95,2.23-4.74c0.09-0.31,0.16-0.65,0.22-1.01
		s0.1-0.71,0.14-1.03c0.03-0.31,0.06-0.63,0.07-0.95c0.02-0.32,0.02-0.62,0.02-0.88C244.12,7.54,243.79,5.99,243.13,4.66z
		 M237.16,10.02c0,0.22-0.02,0.44-0.04,0.66c-0.03,0.31-0.08,0.63-0.13,0.95c-0.05,0.32-0.12,0.61-0.19,0.87
		c-0.43,1.65-1.17,2.8-2.22,3.47c-1.05,0.66-2.19,1-3.41,1h-0.9l2.01-11.3h1.17c0.57,0,1.14,0.11,1.71,0.34
		c0.57,0.22,1.05,0.61,1.44,1.16c0.38,0.55,0.58,1.32,0.58,2.32C237.17,9.61,237.17,9.79,237.16,10.02z"/>
</g>
<g>
	<path class="st1" d="M16.3,14.53c1.46-0.6,2.59-1.48,3.41-2.64c0.82-1.16,1.29-2.51,1.4-4.05c0.01-0.11,0.02-0.23,0.02-0.38
		s0.01-0.3,0.01-0.46c0-0.64-0.07-1.23-0.18-1.77l-10.7,11.56l1.77,5.47h6.83l0.12-0.13L16.3,14.53z"/>
	<polygon class="st1" points="6.76,22.25 7.12,20.17 5.19,22.25 	"/>
	<path class="st1" d="M13.5,0.34H3.85L1.49,13.79L13.92,0.36C13.78,0.36,13.65,0.34,13.5,0.34z"/>
	<polygon class="st1" points="22.85,17.93 31.15,8.97 31.76,5.65 34.22,5.65 39.13,0.35 25.95,0.35 	"/>
	<polygon class="st1" points="37.7,22.25 38.63,16.95 35.3,16.95 30.39,22.25 	"/>
	<polygon class="st1" points="50.06,13.37 53.06,5.92 53.42,5.92 53.65,11.89 59.3,5.79 58.6,0.35 50.67,0.35 49.45,1.67 
		39.69,22.25 44.05,22.25 52.27,13.37 	"/>
	<polygon class="st1" points="61.41,22.25 60.7,16.73 55.59,22.25 	"/>
	<polygon class="st1" points="71.43,16.75 73.96,2.42 65.65,11.39 63.74,22.25 69.25,22.25 74.35,16.75 	"/>
	<polygon class="st1" points="84.05,6.26 89.53,0.35 85.09,0.35 	"/>
	<polygon class="st1" points="81.24,22.25 87.97,22.25 89.65,12.68 81.35,21.65 	"/>
	<polygon class="st1" points="105.55,5.76 109.71,5.76 111.15,4.21 111.84,0.35 101.06,0.35 96.05,5.76 98.84,5.76 96.24,20.31 
		104.57,11.32 	"/>
	<polygon class="st1" points="124.33,15.44 134.3,0.35 127.22,0.35 122.2,9.01 121.94,9.01 121.26,5.76 116.21,11.21 117.57,15.65 
		116.4,22.25 119.64,22.25 123.96,17.6 	"/>
	<polygon class="st1" points="113.34,1.85 114.72,0.35 112.88,0.35 	"/>
	<path class="st1" d="M151.32,13.25c-0.46-0.68-1.03-1.21-1.72-1.61c-0.68-0.39-1.36-0.6-2.04-0.63l0.05-0.3
		c0.72-0.05,1.47-0.3,2.27-0.74s1.48-1.05,2.05-1.85c0.57-0.79,0.85-1.74,0.85-2.84c0-1.01-0.24-1.88-0.71-2.62
		c-0.36-0.56-0.85-1.02-1.47-1.39l-4.59,4.95c0,0.06,0.02,0.11,0.02,0.18c0,0.55-0.11,1.01-0.34,1.38
		c-0.23,0.38-0.55,0.66-0.95,0.84c-0.34,0.16-0.75,0.24-1.19,0.26l-11.24,12.14l-0.22,1.23h10.69c0.76,0,1.48-0.05,2.19-0.15
		l6.91-7.47C151.79,14.13,151.6,13.67,151.32,13.25z M144.83,16.57c-0.27,0.42-0.65,0.74-1.13,0.96c-0.48,0.22-1.04,0.33-1.67,0.33
		h-2.52l0.87-4.88h2.25c0.71,0,1.32,0.14,1.84,0.43c0.52,0.28,0.78,0.83,0.78,1.63C145.23,15.64,145.1,16.15,144.83,16.57z"/>
	<polygon class="st1" points="135.02,5.64 139.92,0.35 135.96,0.35 	"/>
	<path class="st1" d="M168.56,9.6c-0.02,0.31-0.06,0.64-0.13,0.98l-0.35,1.98c-0.19,1.08-0.47,1.96-0.82,2.64
		c-0.35,0.68-0.77,1.18-1.25,1.49s-1.01,0.47-1.57,0.47c-0.66,0-1.21-0.16-1.65-0.47c-0.26-0.18-0.46-0.42-0.64-0.68l-4.33,4.68
		c0.44,0.33,0.9,0.64,1.42,0.89c1.4,0.68,3.02,1.02,4.85,1.02c2.92,0,5.29-0.77,7.09-2.32c1.8-1.55,2.96-3.7,3.48-6.46l0.55-2.95
		c0.07-0.41,0.12-0.81,0.13-1.21s0.02-0.78,0.02-1.15c0-1.77-0.4-3.28-1.19-4.55c-0.11-0.18-0.24-0.34-0.36-0.5l-5.2,5.62
		C168.58,9.24,168.58,9.4,168.56,9.6z"/>
	<path class="st1" d="M157.31,4.03c-0.93,1.31-1.56,2.89-1.89,4.75l-0.46,2.55l10.46-11.3c-1.69,0.06-3.21,0.39-4.53,1.01
		C159.44,1.73,158.24,2.72,157.31,4.03z"/>
	<path class="st1" d="M186.79,0.35h-6.74l-2.33,13.33c-0.02,0.11-0.03,0.22-0.04,0.33l8.29-8.95L186.79,0.35z"/>
	<path class="st1" d="M190.22,13.9c-0.19,1.1-0.55,1.88-1.06,2.34c-0.51,0.46-1.13,0.69-1.86,0.69c-0.26,0-0.51-0.03-0.74-0.07
		l-4.46,4.81c0.07,0.03,0.14,0.07,0.21,0.09c1.41,0.52,2.91,0.78,4.5,0.78c1.75,0,3.33-0.27,4.73-0.81c1.4-0.54,2.54-1.32,3.44-2.34
		s1.47-2.26,1.72-3.7l2.09-12.05l-8.36,9.03L190.22,13.9z"/>
	<polygon class="st1" points="213.39,22.25 218.42,22.25 221.15,6.73 211.04,17.65 	"/>
	<polygon class="st1" points="208.43,0.35 203.32,0.35 200.46,16.61 210.96,5.27 	"/>
	<path class="st1" d="M232.27,5.65h1.17c0.57,0,1.14,0.11,1.71,0.34c0.08,0.03,0.16,0.08,0.24,0.11l4.46-4.82
		c-1.16-0.61-2.52-0.93-4.1-0.93h-8.7l-0.73,0.79l-3.2,18.21l8.32-8.98L232.27,5.65z"/>
	<path class="st1" d="M231.98,22.25c2.02-0.01,3.84-0.39,5.43-1.15c1.62-0.77,2.96-1.84,4.03-3.21c1.07-1.37,1.81-2.95,2.23-4.74
		c0.09-0.31,0.16-0.65,0.22-1.01s0.1-0.71,0.14-1.03c0.03-0.31,0.06-0.63,0.07-0.95c0.02-0.32,0.02-0.62,0.02-0.88
		c0-0.05-0.01-0.09-0.01-0.14L231.98,22.25z"/>
</g>
<g>
</g>
<g>
</g>
<g>
</g>
<g>
</g>
<g>
</g>
<g>
</g>
</svg>
