<?xml version="1.0" encoding="UTF-8"?><svg id="uuid-edc59f4c-be26-445b-a154-119d534aa16a" xmlns="http://www.w3.org/2000/svg" xmlns:xlink="http://www.w3.org/1999/xlink" viewBox="0 0 486.85 54.71"><defs><linearGradient id="uuid-7fde2a3f-0472-43fc-9d40-69e61814e9e0" x1="0" y1="27.35" x2="486.85" y2="27.35" gradientUnits="userSpaceOnUse"><stop offset="0" stop-color="#bc6a88"/><stop offset=".3" stop-color="#9999cb"/><stop offset=".36" stop-color="#959ac9"/><stop offset=".72" stop-color="#67a7b3"/><stop offset="1" stop-color="#9c9"/></linearGradient></defs><rect width="486.85" height="54.71" style="fill:url(#uuid-7fde2a3f-0472-43fc-9d40-69e61814e9e0); stroke-width:0px;"/><path d="m8.47,6.78h27.28c3.91,0,7.18.54,9.83,1.63,2.65,1.08,4.65,2.66,6.01,4.73,1.36,2.07,2.04,4.57,2.04,7.5v.06c0,2.99-.76,5.56-2.29,7.71-1.52,2.15-3.7,3.71-6.53,4.69l10.46,15.97h-14.41l-8.64-13.89h-10.9v13.89h-12.83V6.78Zm26.02,19.95c1.97,0,3.51-.49,4.6-1.46,1.09-.98,1.64-2.3,1.64-3.98v-.06c0-1.7-.56-3.04-1.68-4.01-1.12-.98-2.66-1.46-4.61-1.46h-13.12v10.99h13.18Z" style="fill:#fff; stroke-width:0px;"/><path d="m59.53,6.78h39.58v9.2h-26.75v7.59h24.9v8.29h-24.9v8h26.75v9.2h-39.58V6.78Z" style="fill:#fff; stroke-width:0px;"/><path d="m121.73,6.78h12.36v9.73h-4.22l-13.54,32.55h-13.54L121.73,6.78Zm-4.98,24.93h26.07l3.43,8.41h-32.99l3.49-8.41Zm13.3-15.21V6.78h8.14l18.93,42.28h-13.54l-13.54-32.55Z" style="fill:#fff; stroke-width:0px;"/><path d="m161.22,6.78h12.83v32.64h24.05v9.64h-36.88V6.78Z" style="fill:#fff; stroke-width:0px;"/><path d="m203.11,6.78h12.83v42.28h-12.83V6.78Z" style="fill:#fff; stroke-width:0px;"/><path d="m236.75,16.45h-16.14V6.78h45.15v9.67h-16.17v32.61h-12.83V16.45Z" style="fill:#fff; stroke-width:0px;"/><path d="m287.43,34.65l-19.51-27.86h14.09l11.75,17.64h.18l11.75-17.64h14.09l-19.51,27.86v14.41h-12.83v-14.41Z" style="fill:#fff; stroke-width:0px;"/><path d="m322.79,6.78h9.76v42.28h-9.76V6.78Zm4.86,34.98h7.79c1.58,0,2.79-.45,3.62-1.36s1.25-2.31,1.25-4.2v-.06c0-1.25-.19-2.29-.56-3.13-.37-.84-.93-1.47-1.68-1.89-.75-.42-1.69-.63-2.83-.63h-7.59v-6.33h7.32c1.58,0,2.75-.42,3.52-1.27s1.14-2.13,1.14-3.85v-.06c0-1.6-.36-2.82-1.08-3.65-.72-.83-1.76-1.25-3.11-1.25h-7.79v-7.29h10.43c2.44,0,4.49.44,6.14,1.3,1.65.87,2.89,2.08,3.72,3.62.83,1.54,1.25,3.35,1.25,5.42v.06c0,1.78-.32,3.33-.97,4.64s-1.53,2.38-2.65,3.18c-1.12.8-2.39,1.33-3.79,1.58v.21c1.54.16,2.96.62,4.26,1.39,1.3.77,2.33,1.9,3.11,3.38.77,1.48,1.16,3.35,1.16,5.6v.06c0,2.42-.48,4.52-1.44,6.3-.96,1.78-2.33,3.15-4.13,4.1-1.8.96-3.94,1.44-6.42,1.44h-10.66v-7.29Z" style="fill:#fff; stroke-width:0px;"/><path d="m359.62,47.21c-2.25-1.66-3.95-4.1-5.1-7.31-1.15-3.21-1.73-7.19-1.73-11.94v-.06c0-4.71.58-8.67,1.73-11.89s2.85-5.67,5.1-7.35c2.25-1.68,5.03-2.52,8.35-2.52s6.08.83,8.33,2.49c2.26,1.66,3.96,4.11,5.1,7.35,1.14,3.24,1.71,7.22,1.71,11.92v.06c0,4.75-.57,8.74-1.71,11.97-1.14,3.23-2.84,5.67-5.1,7.31s-5.03,2.46-8.33,2.46-6.1-.83-8.35-2.49Zm11.24-7.35c.77-.92,1.35-2.36,1.73-4.32s.57-4.49.57-7.57v-.06c0-3.07-.19-5.58-.57-7.54s-.96-3.41-1.74-4.35-1.74-1.41-2.87-1.41-2.11.47-2.89,1.41-1.35,2.39-1.74,4.35-.59,4.48-.59,7.54v.06c0,3.11.2,5.64.59,7.59.39,1.95.97,3.39,1.73,4.31.76.92,1.73,1.38,2.9,1.38s2.11-.46,2.89-1.38Z" style="fill:#fff; stroke-width:0px;"/><path d="m393.27,47.95c-2.1-1.17-3.71-2.84-4.83-5.01s-1.68-4.79-1.68-7.85V6.78h9.76v28.33c0,1.37.17,2.5.5,3.4.33.9.81,1.58,1.44,2.04.62.46,1.4.69,2.31.69s1.73-.23,2.37-.69c.64-.46,1.13-1.14,1.45-2.04.32-.9.48-2.03.48-3.4V6.78h9.76v28.3c0,3.05-.56,5.66-1.67,7.85-1.11,2.19-2.72,3.86-4.83,5.02s-4.63,1.74-7.56,1.74-5.39-.59-7.49-1.76Z" style="fill:#fff; stroke-width:0px;"/><path d="m419.12,6.78h9.93l12.25,30.06-4.42-4.51h2.64l-.03-25.55h8.61v42.28h-9.76l-12.45-30.06,4.42,4.54h-2.64l.03,25.52h-8.58V6.78Z" style="fill:#fff; stroke-width:0px;"/><path d="m452.43,6.78h12.89c3.54,0,6.52.75,8.95,2.26,2.43,1.5,4.28,3.8,5.54,6.88,1.26,3.09,1.89,7.01,1.89,11.78v.06c0,4.75-.63,8.7-1.89,11.85-1.26,3.15-3.11,5.52-5.54,7.09-2.43,1.57-5.42,2.36-8.95,2.36h-12.89V6.78Zm11.66,34.01c1.66,0,3.06-.41,4.19-1.23s2-2.19,2.59-4.1c.6-1.91.89-4.48.89-7.71v-.06c0-3.11-.3-5.59-.89-7.44-.6-1.86-1.46-3.19-2.61-4-1.14-.81-2.53-1.22-4.17-1.22h-1.88v25.75h1.88Z" style="fill:#fff; stroke-width:0px;"/></svg>